<mxfile host="app.diagrams.net" agent="Mozilla/5.0 (X11; Ubuntu; Linux x86_64; rv:143.0) Gecko/20100101 Firefox/143.0" version="28.2.5">
  <diagram name="Seite-1" id="tv3RCUC1lsHie5otSo7a">
    <mxGraphModel dx="1426" dy="826" grid="1" gridSize="10" guides="1" tooltips="1" connect="1" arrows="1" fold="1" page="1" pageScale="1" pageWidth="1169" pageHeight="827" math="0" shadow="0">
      <root>
        <mxCell id="0" />
        <mxCell id="1" parent="0" />
        <mxCell id="cdNhLWD77G-AtBXqMV7C-9" style="edgeStyle=orthogonalEdgeStyle;rounded=0;orthogonalLoop=1;jettySize=auto;html=1;endArrow=none;endFill=0;" parent="1" source="cdNhLWD77G-AtBXqMV7C-85" target="cdNhLWD77G-AtBXqMV7C-21" edge="1">
          <mxGeometry relative="1" as="geometry">
            <Array as="points" />
            <mxPoint x="485" y="425.0000000000001" as="sourcePoint" />
          </mxGeometry>
        </mxCell>
        <mxCell id="cdNhLWD77G-AtBXqMV7C-14" value="&lt;div&gt;&amp;lt;&amp;lt;enum&amp;gt;&amp;gt;&lt;/div&gt;&lt;div&gt;&lt;b&gt;ReplicState&lt;/b&gt;&lt;/div&gt;" style="swimlane;fontStyle=0;align=center;verticalAlign=top;childLayout=stackLayout;horizontal=1;startSize=40;horizontalStack=0;resizeParent=1;resizeParentMax=0;resizeLast=0;collapsible=0;marginBottom=0;html=1;whiteSpace=wrap;" parent="1" vertex="1">
          <mxGeometry x="305" y="40" width="190" height="98" as="geometry" />
        </mxCell>
        <mxCell id="cdNhLWD77G-AtBXqMV7C-15" value="&lt;div&gt;ACTIVE,&lt;/div&gt;&lt;div&gt;INACTIVE,&lt;/div&gt;&lt;div&gt;REMOVED&lt;/div&gt;" style="text;html=1;strokeColor=none;fillColor=none;align=center;verticalAlign=middle;spacingLeft=4;spacingRight=4;overflow=hidden;rotatable=0;points=[[0,0.5],[1,0.5]];portConstraint=eastwest;whiteSpace=wrap;fontStyle=1" parent="cdNhLWD77G-AtBXqMV7C-14" vertex="1">
          <mxGeometry y="40" width="190" height="50" as="geometry" />
        </mxCell>
        <mxCell id="cdNhLWD77G-AtBXqMV7C-16" value="" style="line;strokeWidth=1;fillColor=none;align=left;verticalAlign=middle;spacingTop=-1;spacingLeft=3;spacingRight=3;rotatable=0;labelPosition=right;points=[];portConstraint=eastwest;" parent="cdNhLWD77G-AtBXqMV7C-14" vertex="1">
          <mxGeometry y="90" width="190" height="8" as="geometry" />
        </mxCell>
        <mxCell id="cdNhLWD77G-AtBXqMV7C-17" value="&lt;div&gt;&amp;lt;&amp;lt;enum&amp;gt;&amp;gt;&lt;/div&gt;&lt;div&gt;&lt;b&gt;MediaMode&lt;/b&gt;&lt;/div&gt;" style="swimlane;fontStyle=0;align=center;verticalAlign=top;childLayout=stackLayout;horizontal=1;startSize=40;horizontalStack=0;resizeParent=1;resizeParentMax=0;resizeLast=0;collapsible=0;marginBottom=0;html=1;whiteSpace=wrap;" parent="1" vertex="1">
          <mxGeometry x="305" y="160" width="190" height="98" as="geometry" />
        </mxCell>
        <mxCell id="cdNhLWD77G-AtBXqMV7C-18" value="&lt;div&gt;ALL,&lt;/div&gt;&lt;div&gt;IMAGES,&lt;/div&gt;&lt;div&gt;NONE&lt;/div&gt;" style="text;html=1;strokeColor=none;fillColor=none;align=center;verticalAlign=middle;spacingLeft=4;spacingRight=4;overflow=hidden;rotatable=0;points=[[0,0.5],[1,0.5]];portConstraint=eastwest;whiteSpace=wrap;fontStyle=1" parent="cdNhLWD77G-AtBXqMV7C-17" vertex="1">
          <mxGeometry y="40" width="190" height="50" as="geometry" />
        </mxCell>
        <mxCell id="cdNhLWD77G-AtBXqMV7C-19" value="" style="line;strokeWidth=1;fillColor=none;align=left;verticalAlign=middle;spacingTop=-1;spacingLeft=3;spacingRight=3;rotatable=0;labelPosition=right;points=[];portConstraint=eastwest;" parent="cdNhLWD77G-AtBXqMV7C-17" vertex="1">
          <mxGeometry y="90" width="190" height="8" as="geometry" />
        </mxCell>
        <mxCell id="cdNhLWD77G-AtBXqMV7C-21" value="&lt;b&gt;PartialAccount&lt;/b&gt;" style="swimlane;fontStyle=0;align=center;verticalAlign=top;childLayout=stackLayout;horizontal=1;startSize=30;horizontalStack=0;resizeParent=1;resizeParentMax=0;resizeLast=0;collapsible=0;marginBottom=0;html=1;whiteSpace=wrap;" parent="1" vertex="1">
          <mxGeometry x="615" y="330" width="220" height="98" as="geometry" />
        </mxCell>
        <mxCell id="cdNhLWD77G-AtBXqMV7C-22" value="id: string" style="text;html=1;strokeColor=none;fillColor=none;align=left;verticalAlign=middle;spacingLeft=4;spacingRight=4;overflow=hidden;rotatable=0;points=[[0,0.5],[1,0.5]];portConstraint=eastwest;whiteSpace=wrap;" parent="cdNhLWD77G-AtBXqMV7C-21" vertex="1">
          <mxGeometry y="30" width="220" height="20" as="geometry" />
        </mxCell>
        <mxCell id="cdNhLWD77G-AtBXqMV7C-25" value="username: string" style="text;html=1;strokeColor=none;fillColor=none;align=left;verticalAlign=middle;spacingLeft=4;spacingRight=4;overflow=hidden;rotatable=0;points=[[0,0.5],[1,0.5]];portConstraint=eastwest;whiteSpace=wrap;" parent="cdNhLWD77G-AtBXqMV7C-21" vertex="1">
          <mxGeometry y="50" width="220" height="20" as="geometry" />
        </mxCell>
        <mxCell id="cdNhLWD77G-AtBXqMV7C-28" value="profileColor: number" style="text;html=1;strokeColor=none;fillColor=none;align=left;verticalAlign=middle;spacingLeft=4;spacingRight=4;overflow=hidden;rotatable=0;points=[[0,0.5],[1,0.5]];portConstraint=eastwest;whiteSpace=wrap;" parent="cdNhLWD77G-AtBXqMV7C-21" vertex="1">
          <mxGeometry y="70" width="220" height="20" as="geometry" />
        </mxCell>
        <mxCell id="cdNhLWD77G-AtBXqMV7C-29" value="" style="line;strokeWidth=1;fillColor=none;align=left;verticalAlign=middle;spacingTop=-1;spacingLeft=3;spacingRight=3;rotatable=0;labelPosition=right;points=[];portConstraint=eastwest;" parent="cdNhLWD77G-AtBXqMV7C-21" vertex="1">
          <mxGeometry y="90" width="220" height="8" as="geometry" />
        </mxCell>
        <mxCell id="cdNhLWD77G-AtBXqMV7C-30" value="&lt;div&gt;&amp;lt;&amp;lt;enum&amp;gt;&amp;gt;&lt;/div&gt;&lt;div&gt;&lt;b&gt;AccountState&lt;/b&gt;&lt;/div&gt;" style="swimlane;fontStyle=0;align=center;verticalAlign=top;childLayout=stackLayout;horizontal=1;startSize=40;horizontalStack=0;resizeParent=1;resizeParentMax=0;resizeLast=0;collapsible=0;marginBottom=0;html=1;whiteSpace=wrap;" parent="1" vertex="1">
          <mxGeometry x="630" y="210" width="190" height="98" as="geometry" />
        </mxCell>
        <mxCell id="cdNhLWD77G-AtBXqMV7C-31" value="&lt;div&gt;ACTIVE,&lt;/div&gt;&lt;div&gt;INACTIVE,&lt;/div&gt;&lt;div&gt;UNVERIFIED&lt;/div&gt;" style="text;html=1;strokeColor=none;fillColor=none;align=center;verticalAlign=middle;spacingLeft=4;spacingRight=4;overflow=hidden;rotatable=0;points=[[0,0.5],[1,0.5]];portConstraint=eastwest;whiteSpace=wrap;fontStyle=1" parent="cdNhLWD77G-AtBXqMV7C-30" vertex="1">
          <mxGeometry y="40" width="190" height="50" as="geometry" />
        </mxCell>
        <mxCell id="cdNhLWD77G-AtBXqMV7C-32" value="" style="line;strokeWidth=1;fillColor=none;align=left;verticalAlign=middle;spacingTop=-1;spacingLeft=3;spacingRight=3;rotatable=0;labelPosition=right;points=[];portConstraint=eastwest;" parent="cdNhLWD77G-AtBXqMV7C-30" vertex="1">
          <mxGeometry y="90" width="190" height="8" as="geometry" />
        </mxCell>
        <mxCell id="cdNhLWD77G-AtBXqMV7C-46" style="rounded=0;orthogonalLoop=1;jettySize=auto;html=1;endArrow=none;endFill=0;" parent="1" source="cdNhLWD77G-AtBXqMV7C-48" target="cdNhLWD77G-AtBXqMV7C-21" edge="1">
          <mxGeometry relative="1" as="geometry" />
        </mxCell>
        <mxCell id="cdNhLWD77G-AtBXqMV7C-47" style="rounded=0;orthogonalLoop=1;jettySize=auto;html=1;endArrow=none;endFill=0;" parent="1" source="cdNhLWD77G-AtBXqMV7C-48" target="cdNhLWD77G-AtBXqMV7C-85" edge="1">
          <mxGeometry relative="1" as="geometry">
            <mxPoint x="412.86423841059604" y="433" as="targetPoint" />
          </mxGeometry>
        </mxCell>
        <mxCell id="cdNhLWD77G-AtBXqMV7C-48" value="&lt;b&gt;Report&lt;/b&gt;" style="swimlane;fontStyle=0;align=center;verticalAlign=top;childLayout=stackLayout;horizontal=1;startSize=30;horizontalStack=0;resizeParent=1;resizeParentMax=0;resizeLast=0;collapsible=0;marginBottom=0;html=1;whiteSpace=wrap;" parent="1" vertex="1">
          <mxGeometry x="330" y="600" width="220" height="138" as="geometry" />
        </mxCell>
        <mxCell id="cdNhLWD77G-AtBXqMV7C-49" value="id: string" style="text;html=1;strokeColor=none;fillColor=none;align=left;verticalAlign=middle;spacingLeft=4;spacingRight=4;overflow=hidden;rotatable=0;points=[[0,0.5],[1,0.5]];portConstraint=eastwest;whiteSpace=wrap;" parent="cdNhLWD77G-AtBXqMV7C-48" vertex="1">
          <mxGeometry y="30" width="220" height="20" as="geometry" />
        </mxCell>
        <mxCell id="cdNhLWD77G-AtBXqMV7C-50" value="creationTimestamp: Date" style="text;html=1;strokeColor=none;fillColor=none;align=left;verticalAlign=middle;spacingLeft=4;spacingRight=4;overflow=hidden;rotatable=0;points=[[0,0.5],[1,0.5]];portConstraint=eastwest;whiteSpace=wrap;" parent="cdNhLWD77G-AtBXqMV7C-48" vertex="1">
          <mxGeometry y="50" width="220" height="20" as="geometry" />
        </mxCell>
        <mxCell id="cdNhLWD77G-AtBXqMV7C-51" value="replic: Replic " style="text;html=1;strokeColor=none;fillColor=none;align=left;verticalAlign=middle;spacingLeft=4;spacingRight=4;overflow=hidden;rotatable=0;points=[[0,0.5],[1,0.5]];portConstraint=eastwest;whiteSpace=wrap;" parent="cdNhLWD77G-AtBXqMV7C-48" vertex="1">
          <mxGeometry y="70" width="220" height="20" as="geometry" />
        </mxCell>
        <mxCell id="cdNhLWD77G-AtBXqMV7C-52" value="owner: PartialAccount" style="text;html=1;strokeColor=none;fillColor=none;align=left;verticalAlign=middle;spacingLeft=4;spacingRight=4;overflow=hidden;rotatable=0;points=[[0,0.5],[1,0.5]];portConstraint=eastwest;whiteSpace=wrap;" parent="cdNhLWD77G-AtBXqMV7C-48" vertex="1">
          <mxGeometry y="90" width="220" height="20" as="geometry" />
        </mxCell>
        <mxCell id="cdNhLWD77G-AtBXqMV7C-53" value="description: string" style="text;html=1;strokeColor=none;fillColor=none;align=left;verticalAlign=middle;spacingLeft=4;spacingRight=4;overflow=hidden;rotatable=0;points=[[0,0.5],[1,0.5]];portConstraint=eastwest;whiteSpace=wrap;" parent="cdNhLWD77G-AtBXqMV7C-48" vertex="1">
          <mxGeometry y="110" width="220" height="20" as="geometry" />
        </mxCell>
        <mxCell id="cdNhLWD77G-AtBXqMV7C-54" value="" style="line;strokeWidth=1;fillColor=none;align=left;verticalAlign=middle;spacingTop=-1;spacingLeft=3;spacingRight=3;rotatable=0;labelPosition=right;points=[];portConstraint=eastwest;" parent="cdNhLWD77G-AtBXqMV7C-48" vertex="1">
          <mxGeometry y="130" width="220" height="8" as="geometry" />
        </mxCell>
        <mxCell id="cdNhLWD77G-AtBXqMV7C-55" value="&lt;div&gt;&amp;lt;&amp;lt;enum&amp;gt;&amp;gt;&lt;/div&gt;&lt;div&gt;&lt;b&gt;AuthUserGroup&lt;/b&gt;&lt;/div&gt;" style="swimlane;fontStyle=0;align=center;verticalAlign=top;childLayout=stackLayout;horizontal=1;startSize=40;horizontalStack=0;resizeParent=1;resizeParentMax=0;resizeLast=0;collapsible=0;marginBottom=0;html=1;whiteSpace=wrap;" parent="1" vertex="1">
          <mxGeometry x="865" y="536" width="190" height="98" as="geometry" />
        </mxCell>
        <mxCell id="cdNhLWD77G-AtBXqMV7C-56" value="&lt;div&gt;ALL,&lt;/div&gt;&lt;div&gt;ACCOUNT,&lt;/div&gt;&lt;div&gt;VERIFIED&lt;/div&gt;" style="text;html=1;strokeColor=none;fillColor=none;align=center;verticalAlign=middle;spacingLeft=4;spacingRight=4;overflow=hidden;rotatable=0;points=[[0,0.5],[1,0.5]];portConstraint=eastwest;whiteSpace=wrap;fontStyle=1" parent="cdNhLWD77G-AtBXqMV7C-55" vertex="1">
          <mxGeometry y="40" width="190" height="50" as="geometry" />
        </mxCell>
        <mxCell id="cdNhLWD77G-AtBXqMV7C-57" value="" style="line;strokeWidth=1;fillColor=none;align=left;verticalAlign=middle;spacingTop=-1;spacingLeft=3;spacingRight=3;rotatable=0;labelPosition=right;points=[];portConstraint=eastwest;" parent="cdNhLWD77G-AtBXqMV7C-55" vertex="1">
          <mxGeometry y="90" width="190" height="8" as="geometry" />
        </mxCell>
        <mxCell id="cdNhLWD77G-AtBXqMV7C-58" value="&lt;b&gt;ReplicLimitConfig&lt;/b&gt;" style="swimlane;fontStyle=0;align=center;verticalAlign=top;childLayout=stackLayout;horizontal=1;startSize=30;horizontalStack=0;resizeParent=1;resizeParentMax=0;resizeLast=0;collapsible=0;marginBottom=0;html=1;whiteSpace=wrap;" parent="1" vertex="1">
          <mxGeometry x="850" y="220" width="220" height="78" as="geometry" />
        </mxCell>
        <mxCell id="xpUu_JZxGXVtoIzc_uhQ-1" value="period: Period" style="text;html=1;strokeColor=none;fillColor=none;align=left;verticalAlign=middle;spacingLeft=4;spacingRight=4;overflow=hidden;rotatable=0;points=[[0,0.5],[1,0.5]];portConstraint=eastwest;whiteSpace=wrap;" parent="cdNhLWD77G-AtBXqMV7C-58" vertex="1">
          <mxGeometry y="30" width="220" height="20" as="geometry" />
        </mxCell>
        <mxCell id="cdNhLWD77G-AtBXqMV7C-60" value="count: number" style="text;html=1;strokeColor=none;fillColor=none;align=left;verticalAlign=middle;spacingLeft=4;spacingRight=4;overflow=hidden;rotatable=0;points=[[0,0.5],[1,0.5]];portConstraint=eastwest;whiteSpace=wrap;" parent="cdNhLWD77G-AtBXqMV7C-58" vertex="1">
          <mxGeometry y="50" width="220" height="20" as="geometry" />
        </mxCell>
        <mxCell id="cdNhLWD77G-AtBXqMV7C-61" value="" style="line;strokeWidth=1;fillColor=none;align=left;verticalAlign=middle;spacingTop=-1;spacingLeft=3;spacingRight=3;rotatable=0;labelPosition=right;points=[];portConstraint=eastwest;" parent="cdNhLWD77G-AtBXqMV7C-58" vertex="1">
          <mxGeometry y="70" width="220" height="8" as="geometry" />
        </mxCell>
        <mxCell id="cdNhLWD77G-AtBXqMV7C-62" value="&lt;b&gt;ServerConfig&lt;/b&gt;" style="swimlane;fontStyle=0;align=center;verticalAlign=top;childLayout=stackLayout;horizontal=1;startSize=30;horizontalStack=0;resizeParent=1;resizeParentMax=0;resizeLast=0;collapsible=0;marginBottom=0;html=1;whiteSpace=wrap;" parent="1" vertex="1">
          <mxGeometry x="850" y="40" width="220" height="158" as="geometry" />
        </mxCell>
        <mxCell id="cdNhLWD77G-AtBXqMV7C-63" value="createReplicsGroup: AuthUserGroup" style="text;html=1;strokeColor=none;fillColor=none;align=left;verticalAlign=middle;spacingLeft=4;spacingRight=4;overflow=hidden;rotatable=0;points=[[0,0.5],[1,0.5]];portConstraint=eastwest;whiteSpace=wrap;" parent="cdNhLWD77G-AtBXqMV7C-62" vertex="1">
          <mxGeometry y="30" width="220" height="20" as="geometry" />
        </mxCell>
        <mxCell id="cdNhLWD77G-AtBXqMV7C-64" value="accessReplicsGroup: AuthUserGroup" style="text;html=1;strokeColor=none;fillColor=none;align=left;verticalAlign=middle;spacingLeft=4;spacingRight=4;overflow=hidden;rotatable=0;points=[[0,0.5],[1,0.5]];portConstraint=eastwest;whiteSpace=wrap;" parent="cdNhLWD77G-AtBXqMV7C-62" vertex="1">
          <mxGeometry y="50" width="220" height="20" as="geometry" />
        </mxCell>
        <mxCell id="cdNhLWD77G-AtBXqMV7C-65" value="createReportGroup: AuthUserGroup" style="text;html=1;strokeColor=none;fillColor=none;align=left;verticalAlign=middle;spacingLeft=4;spacingRight=4;overflow=hidden;rotatable=0;points=[[0,0.5],[1,0.5]];portConstraint=eastwest;whiteSpace=wrap;" parent="cdNhLWD77G-AtBXqMV7C-62" vertex="1">
          <mxGeometry y="70" width="220" height="20" as="geometry" />
        </mxCell>
        <mxCell id="cdNhLWD77G-AtBXqMV7C-66" value="allowAccountCreation: boolean" style="text;html=1;strokeColor=none;fillColor=none;align=left;verticalAlign=middle;spacingLeft=4;spacingRight=4;overflow=hidden;rotatable=0;points=[[0,0.5],[1,0.5]];portConstraint=eastwest;whiteSpace=wrap;" parent="cdNhLWD77G-AtBXqMV7C-62" vertex="1">
          <mxGeometry y="90" width="220" height="20" as="geometry" />
        </mxCell>
        <mxCell id="cdNhLWD77G-AtBXqMV7C-67" value="limit: ReplicLimitConfig" style="text;html=1;strokeColor=none;fillColor=none;align=left;verticalAlign=middle;spacingLeft=4;spacingRight=4;overflow=hidden;rotatable=0;points=[[0,0.5],[1,0.5]];portConstraint=eastwest;whiteSpace=wrap;" parent="cdNhLWD77G-AtBXqMV7C-62" vertex="1">
          <mxGeometry y="110" width="220" height="20" as="geometry" />
        </mxCell>
        <mxCell id="cdNhLWD77G-AtBXqMV7C-68" value="maximumActivePeriod: Period" style="text;html=1;strokeColor=none;fillColor=none;align=left;verticalAlign=middle;spacingLeft=4;spacingRight=4;overflow=hidden;rotatable=0;points=[[0,0.5],[1,0.5]];portConstraint=eastwest;whiteSpace=wrap;" parent="cdNhLWD77G-AtBXqMV7C-62" vertex="1">
          <mxGeometry y="130" width="220" height="20" as="geometry" />
        </mxCell>
        <mxCell id="cdNhLWD77G-AtBXqMV7C-69" value="" style="line;strokeWidth=1;fillColor=none;align=left;verticalAlign=middle;spacingTop=-1;spacingLeft=3;spacingRight=3;rotatable=0;labelPosition=right;points=[];portConstraint=eastwest;" parent="cdNhLWD77G-AtBXqMV7C-62" vertex="1">
          <mxGeometry y="150" width="220" height="8" as="geometry" />
        </mxCell>
        <mxCell id="cdNhLWD77G-AtBXqMV7C-72" value="1" style="text;html=1;align=center;verticalAlign=middle;whiteSpace=wrap;rounded=0;fontSize=10;" parent="1" vertex="1">
          <mxGeometry x="520" y="345" width="30" height="30" as="geometry" />
        </mxCell>
        <mxCell id="cdNhLWD77G-AtBXqMV7C-73" value="owner" style="text;html=1;align=center;verticalAlign=middle;whiteSpace=wrap;rounded=0;fontSize=10;" parent="1" vertex="1">
          <mxGeometry x="520" y="375" width="50" height="30" as="geometry" />
        </mxCell>
        <mxCell id="cdNhLWD77G-AtBXqMV7C-78" value="0..1" style="text;html=1;align=center;verticalAlign=middle;whiteSpace=wrap;rounded=0;fontSize=10;" parent="1" vertex="1">
          <mxGeometry x="489.5" y="570" width="30" height="30" as="geometry" />
        </mxCell>
        <mxCell id="cdNhLWD77G-AtBXqMV7C-79" value="owner" style="text;html=1;align=center;verticalAlign=middle;whiteSpace=wrap;rounded=0;fontSize=10;" parent="1" vertex="1">
          <mxGeometry x="520" y="570" width="50" height="30" as="geometry" />
        </mxCell>
        <mxCell id="cdNhLWD77G-AtBXqMV7C-80" value="1" style="text;html=1;align=center;verticalAlign=middle;whiteSpace=wrap;rounded=0;fontSize=10;" parent="1" vertex="1">
          <mxGeometry x="385" y="570" width="30" height="30" as="geometry" />
        </mxCell>
        <mxCell id="cdNhLWD77G-AtBXqMV7C-81" value="replic" style="text;html=1;align=center;verticalAlign=middle;whiteSpace=wrap;rounded=0;fontSize=10;" parent="1" vertex="1">
          <mxGeometry x="425" y="570" width="50" height="30" as="geometry" />
        </mxCell>
        <mxCell id="cdNhLWD77G-AtBXqMV7C-85" value="&lt;b&gt;Replic&lt;/b&gt;" style="swimlane;fontStyle=0;align=center;verticalAlign=top;childLayout=stackLayout;horizontal=1;startSize=30;horizontalStack=0;resizeParent=1;resizeParentMax=0;resizeLast=0;collapsible=0;marginBottom=0;html=1;whiteSpace=wrap;" parent="1" vertex="1">
          <mxGeometry x="280" y="280" width="240" height="258" as="geometry" />
        </mxCell>
        <mxCell id="cdNhLWD77G-AtBXqMV7C-86" value="id: string" style="text;html=1;strokeColor=none;fillColor=none;align=left;verticalAlign=middle;spacingLeft=4;spacingRight=4;overflow=hidden;rotatable=0;points=[[0,0.5],[1,0.5]];portConstraint=eastwest;whiteSpace=wrap;" parent="cdNhLWD77G-AtBXqMV7C-85" vertex="1">
          <mxGeometry y="30" width="240" height="20" as="geometry" />
        </mxCell>
        <mxCell id="cdNhLWD77G-AtBXqMV7C-87" value="creationTimestamp: Date" style="text;html=1;strokeColor=none;fillColor=none;align=left;verticalAlign=middle;spacingLeft=4;spacingRight=4;overflow=hidden;rotatable=0;points=[[0,0.5],[1,0.5]];portConstraint=eastwest;whiteSpace=wrap;" parent="cdNhLWD77G-AtBXqMV7C-85" vertex="1">
          <mxGeometry y="50" width="240" height="20" as="geometry" />
        </mxCell>
        <mxCell id="cdNhLWD77G-AtBXqMV7C-88" value="originalUrl: string" style="text;html=1;strokeColor=none;fillColor=none;align=left;verticalAlign=middle;spacingLeft=4;spacingRight=4;overflow=hidden;rotatable=0;points=[[0,0.5],[1,0.5]];portConstraint=eastwest;whiteSpace=wrap;" parent="cdNhLWD77G-AtBXqMV7C-85" vertex="1">
          <mxGeometry y="70" width="240" height="20" as="geometry" />
        </mxCell>
        <mxCell id="cdNhLWD77G-AtBXqMV7C-109" value="hostUrl: string" style="text;html=1;strokeColor=none;fillColor=none;align=left;verticalAlign=middle;spacingLeft=4;spacingRight=4;overflow=hidden;rotatable=0;points=[[0,0.5],[1,0.5]];portConstraint=eastwest;whiteSpace=wrap;" parent="cdNhLWD77G-AtBXqMV7C-85" vertex="1">
          <mxGeometry y="90" width="240" height="20" as="geometry" />
        </mxCell>
        <mxCell id="cdNhLWD77G-AtBXqMV7C-89" value="mediaMode: MediaMode " style="text;html=1;strokeColor=none;fillColor=none;align=left;verticalAlign=middle;spacingLeft=4;spacingRight=4;overflow=hidden;rotatable=0;points=[[0,0.5],[1,0.5]];portConstraint=eastwest;whiteSpace=wrap;" parent="cdNhLWD77G-AtBXqMV7C-85" vertex="1">
          <mxGeometry y="110" width="240" height="20" as="geometry" />
        </mxCell>
        <mxCell id="cdNhLWD77G-AtBXqMV7C-90" value="description: string" style="text;html=1;strokeColor=none;fillColor=none;align=left;verticalAlign=middle;spacingLeft=4;spacingRight=4;overflow=hidden;rotatable=0;points=[[0,0.5],[1,0.5]];portConstraint=eastwest;whiteSpace=wrap;" parent="cdNhLWD77G-AtBXqMV7C-85" vertex="1">
          <mxGeometry y="130" width="240" height="20" as="geometry" />
        </mxCell>
        <mxCell id="cdNhLWD77G-AtBXqMV7C-91" value="expirationTimestamp: Date" style="text;html=1;strokeColor=none;fillColor=none;align=left;verticalAlign=middle;spacingLeft=4;spacingRight=4;overflow=hidden;rotatable=0;points=[[0,0.5],[1,0.5]];portConstraint=eastwest;whiteSpace=wrap;" parent="cdNhLWD77G-AtBXqMV7C-85" vertex="1">
          <mxGeometry y="150" width="240" height="20" as="geometry" />
        </mxCell>
        <mxCell id="cdNhLWD77G-AtBXqMV7C-93" value="owner: PartialAccount" style="text;html=1;strokeColor=none;fillColor=none;align=left;verticalAlign=middle;spacingLeft=4;spacingRight=4;overflow=hidden;rotatable=0;points=[[0,0.5],[1,0.5]];portConstraint=eastwest;whiteSpace=wrap;" parent="cdNhLWD77G-AtBXqMV7C-85" vertex="1">
          <mxGeometry y="170" width="240" height="20" as="geometry" />
        </mxCell>
        <mxCell id="cdNhLWD77G-AtBXqMV7C-110" value="size: number" style="text;html=1;strokeColor=none;fillColor=none;align=left;verticalAlign=middle;spacingLeft=4;spacingRight=4;overflow=hidden;rotatable=0;points=[[0,0.5],[1,0.5]];portConstraint=eastwest;whiteSpace=wrap;" parent="cdNhLWD77G-AtBXqMV7C-85" vertex="1">
          <mxGeometry y="190" width="240" height="20" as="geometry" />
        </mxCell>
        <mxCell id="cdNhLWD77G-AtBXqMV7C-12" value="state: ReplicState" style="text;html=1;strokeColor=none;fillColor=none;align=left;verticalAlign=middle;spacingLeft=4;spacingRight=4;overflow=hidden;rotatable=0;points=[[0,0.5],[1,0.5]];portConstraint=eastwest;whiteSpace=wrap;" parent="cdNhLWD77G-AtBXqMV7C-85" vertex="1">
          <mxGeometry y="210" width="240" height="20" as="geometry" />
        </mxCell>
        <mxCell id="p83KfR1RLLk_OVVpQxci-1" value="hasPassword: boolean" style="text;html=1;strokeColor=none;fillColor=none;align=left;verticalAlign=middle;spacingLeft=4;spacingRight=4;overflow=hidden;rotatable=0;points=[[0,0.5],[1,0.5]];portConstraint=eastwest;whiteSpace=wrap;" parent="cdNhLWD77G-AtBXqMV7C-85" vertex="1">
          <mxGeometry y="230" width="240" height="20" as="geometry" />
        </mxCell>
        <mxCell id="cdNhLWD77G-AtBXqMV7C-94" value="" style="line;strokeWidth=1;fillColor=none;align=left;verticalAlign=middle;spacingTop=-1;spacingLeft=3;spacingRight=3;rotatable=0;labelPosition=right;points=[];portConstraint=eastwest;" parent="cdNhLWD77G-AtBXqMV7C-85" vertex="1">
          <mxGeometry y="250" width="240" height="8" as="geometry" />
        </mxCell>
        <mxCell id="cdNhLWD77G-AtBXqMV7C-95" value="&lt;div&gt;&lt;b&gt;&amp;lt;&amp;lt;enum&amp;gt;&amp;gt;&lt;/b&gt;&lt;/div&gt;&lt;div&gt;&lt;b&gt;PeriodUnit&lt;/b&gt;&lt;/div&gt;" style="swimlane;fontStyle=0;align=center;verticalAlign=top;childLayout=stackLayout;horizontal=1;startSize=40;horizontalStack=0;resizeParent=1;resizeParentMax=0;resizeLast=0;collapsible=0;marginBottom=0;html=1;whiteSpace=wrap;" parent="1" vertex="1">
          <mxGeometry x="850" y="428" width="220" height="98" as="geometry" />
        </mxCell>
        <mxCell id="cdNhLWD77G-AtBXqMV7C-99" value="&lt;div&gt;&lt;b&gt;DAY,&lt;/b&gt;&lt;/div&gt;&lt;div&gt;&lt;b&gt;MONTH,&lt;/b&gt;&lt;/div&gt;&lt;div&gt;&lt;b&gt;YEAR&lt;/b&gt;&lt;/div&gt;" style="text;html=1;strokeColor=none;fillColor=none;align=center;verticalAlign=middle;spacingLeft=4;spacingRight=4;overflow=hidden;rotatable=0;points=[[0,0.5],[1,0.5]];portConstraint=eastwest;whiteSpace=wrap;" parent="cdNhLWD77G-AtBXqMV7C-95" vertex="1">
          <mxGeometry y="40" width="220" height="50" as="geometry" />
        </mxCell>
        <mxCell id="cdNhLWD77G-AtBXqMV7C-98" value="" style="line;strokeWidth=1;fillColor=none;align=left;verticalAlign=middle;spacingTop=-1;spacingLeft=3;spacingRight=3;rotatable=0;labelPosition=right;points=[];portConstraint=eastwest;" parent="cdNhLWD77G-AtBXqMV7C-95" vertex="1">
          <mxGeometry y="90" width="220" height="8" as="geometry" />
        </mxCell>
        <mxCell id="cdNhLWD77G-AtBXqMV7C-108" style="edgeStyle=orthogonalEdgeStyle;rounded=0;orthogonalLoop=1;jettySize=auto;html=1;endArrow=block;endFill=0;" parent="1" source="cdNhLWD77G-AtBXqMV7C-100" target="cdNhLWD77G-AtBXqMV7C-21" edge="1">
          <mxGeometry relative="1" as="geometry" />
        </mxCell>
        <mxCell id="cdNhLWD77G-AtBXqMV7C-100" value="&lt;div&gt;&lt;b&gt;Account&lt;/b&gt;&lt;/div&gt;" style="swimlane;fontStyle=0;align=center;verticalAlign=top;childLayout=stackLayout;horizontal=1;startSize=30;horizontalStack=0;resizeParent=1;resizeParentMax=0;resizeLast=0;collapsible=0;marginBottom=0;html=1;whiteSpace=wrap;" parent="1" vertex="1">
          <mxGeometry x="615" y="550" width="220" height="98" as="geometry" />
        </mxCell>
        <mxCell id="cdNhLWD77G-AtBXqMV7C-102" value="creationTimestamp: Date" style="text;html=1;strokeColor=none;fillColor=none;align=left;verticalAlign=middle;spacingLeft=4;spacingRight=4;overflow=hidden;rotatable=0;points=[[0,0.5],[1,0.5]];portConstraint=eastwest;whiteSpace=wrap;" parent="cdNhLWD77G-AtBXqMV7C-100" vertex="1">
          <mxGeometry y="30" width="220" height="20" as="geometry" />
        </mxCell>
        <mxCell id="cdNhLWD77G-AtBXqMV7C-103" value="email: string" style="text;html=1;strokeColor=none;fillColor=none;align=left;verticalAlign=middle;spacingLeft=4;spacingRight=4;overflow=hidden;rotatable=0;points=[[0,0.5],[1,0.5]];portConstraint=eastwest;whiteSpace=wrap;" parent="cdNhLWD77G-AtBXqMV7C-100" vertex="1">
          <mxGeometry y="50" width="220" height="20" as="geometry" />
        </mxCell>
        <mxCell id="cdNhLWD77G-AtBXqMV7C-105" value="accountState: AccountState" style="text;html=1;strokeColor=none;fillColor=none;align=left;verticalAlign=middle;spacingLeft=4;spacingRight=4;overflow=hidden;rotatable=0;points=[[0,0.5],[1,0.5]];portConstraint=eastwest;whiteSpace=wrap;" parent="cdNhLWD77G-AtBXqMV7C-100" vertex="1">
          <mxGeometry y="70" width="220" height="20" as="geometry" />
        </mxCell>
        <mxCell id="cdNhLWD77G-AtBXqMV7C-107" value="" style="line;strokeWidth=1;fillColor=none;align=left;verticalAlign=middle;spacingTop=-1;spacingLeft=3;spacingRight=3;rotatable=0;labelPosition=right;points=[];portConstraint=eastwest;" parent="cdNhLWD77G-AtBXqMV7C-100" vertex="1">
          <mxGeometry y="90" width="220" height="8" as="geometry" />
        </mxCell>
        <mxCell id="DIssG6ZwWW1Vq6OyKpTf-4" value="&amp;lt;&amp;lt;enum&amp;gt;&amp;gt;&lt;div&gt;&lt;b&gt;Error&lt;/b&gt;&lt;/div&gt;" style="swimlane;fontStyle=0;align=center;verticalAlign=middle;childLayout=stackLayout;horizontal=1;startSize=37;horizontalStack=0;resizeParent=1;resizeParentMax=0;resizeLast=0;collapsible=0;marginBottom=0;html=1;whiteSpace=wrap;" parent="1" vertex="1">
          <mxGeometry x="570" y="65" width="220" height="108" as="geometry" />
        </mxCell>
        <mxCell id="DIssG6ZwWW1Vq6OyKpTf-5" value="&lt;div&gt;CONNECTION&lt;span style=&quot;font-weight: normal;&quot;&gt;,&lt;/span&gt;&lt;/div&gt;&lt;div&gt;TIMEOUT&lt;span style=&quot;font-weight: normal;&quot;&gt;,&lt;/span&gt;&lt;/div&gt;&lt;div&gt;PERMISSION,&lt;/div&gt;&lt;div&gt;AUTHENTICATION&lt;/div&gt;" style="text;html=1;strokeColor=none;fillColor=none;align=center;verticalAlign=middle;spacingLeft=4;spacingRight=4;overflow=hidden;rotatable=0;points=[[0,0.5],[1,0.5]];portConstraint=eastwest;whiteSpace=wrap;fontStyle=1" parent="DIssG6ZwWW1Vq6OyKpTf-4" vertex="1">
          <mxGeometry y="37" width="220" height="63" as="geometry" />
        </mxCell>
        <mxCell id="DIssG6ZwWW1Vq6OyKpTf-6" value="" style="line;strokeWidth=1;fillColor=none;align=left;verticalAlign=middle;spacingTop=-1;spacingLeft=3;spacingRight=3;rotatable=0;labelPosition=right;points=[];portConstraint=eastwest;" parent="DIssG6ZwWW1Vq6OyKpTf-4" vertex="1">
          <mxGeometry y="100" width="220" height="8" as="geometry" />
        </mxCell>
        <mxCell id="xfnoufCY69T8IwcypUgH-1" value="&lt;b&gt;Period&lt;/b&gt;" style="swimlane;fontStyle=0;align=center;verticalAlign=top;childLayout=stackLayout;horizontal=1;startSize=30;horizontalStack=0;resizeParent=1;resizeParentMax=0;resizeLast=0;collapsible=0;marginBottom=0;html=1;whiteSpace=wrap;" vertex="1" parent="1">
          <mxGeometry x="850" y="330" width="220" height="78" as="geometry" />
        </mxCell>
        <mxCell id="xfnoufCY69T8IwcypUgH-2" value="unit: PeriodUnit" style="text;html=1;strokeColor=none;fillColor=none;align=left;verticalAlign=middle;spacingLeft=4;spacingRight=4;overflow=hidden;rotatable=0;points=[[0,0.5],[1,0.5]];portConstraint=eastwest;whiteSpace=wrap;" vertex="1" parent="xfnoufCY69T8IwcypUgH-1">
          <mxGeometry y="30" width="220" height="20" as="geometry" />
        </mxCell>
        <mxCell id="xfnoufCY69T8IwcypUgH-3" value="length: number" style="text;html=1;strokeColor=none;fillColor=none;align=left;verticalAlign=middle;spacingLeft=4;spacingRight=4;overflow=hidden;rotatable=0;points=[[0,0.5],[1,0.5]];portConstraint=eastwest;whiteSpace=wrap;" vertex="1" parent="xfnoufCY69T8IwcypUgH-1">
          <mxGeometry y="50" width="220" height="20" as="geometry" />
        </mxCell>
        <mxCell id="xfnoufCY69T8IwcypUgH-5" value="" style="line;strokeWidth=1;fillColor=none;align=left;verticalAlign=middle;spacingTop=-1;spacingLeft=3;spacingRight=3;rotatable=0;labelPosition=right;points=[];portConstraint=eastwest;" vertex="1" parent="xfnoufCY69T8IwcypUgH-1">
          <mxGeometry y="70" width="220" height="8" as="geometry" />
        </mxCell>
      </root>
    </mxGraphModel>
  </diagram>
</mxfile>
